_________________________  Visit us at _________________________
  
http://p2pdl.com  ____________________________  http://p2pdl.com

 
http://www.shotpix.com/images/99384456456354998072.jpg


Here Comes The Boom 2012 BRRip 720p x264 - PRiSTiNE [P2PDL]
				
Genre: Action | Comedy
A high school biology teacher looks to become a successful mixed-martial arts fighter in an effort to raise money to prevent extra-curricular activities from being axed at his cash-strapped school.
Director: Frank Coraci
Stars:  Kevin James, Salma Hayek, Henry Winkler
Rated: PG for bouts of MMA sports violence, some rude humor and language.

Info:  
http://www.imdb.com/title/tt1648179/
 
http://cinemahouse.in/movie/238/Here+Comes+the+Boom



General
Format                         : MPEG-4
Format profile                 : Base Media / Version 2
Codec ID                       : mp42
File size                      : 658 MiB
Duration                       : 1h 44mn
Overall bit rate mode          : Variable
Overall bit rate               : 876 Kbps
Movie name                     : Here Comes The Boom 2012 BRRip 720p x264 AAC - PRiSTiNE [P2PDL]

Source                         : 720p.BluRay.X264-BLOW(Thanks)

Video
Format                         : AVC
Width                          : 1 280 pixels
Height                         : 688 pixels
Display aspect ratio           : 1.860
Frame rate mode                : Variable
Frame rate                     : 23.976 fps
Stream size                    : 581 MiB (88%)
Writing library                : x264 core 128

Audio
Format                         : AAC
Duration                       : 1h 44mn
Bit rate mode                  : Variable
Bit rate                       : 96.0 Kbps
Channel(s)                     : 2 channels
Channel positions              : Front: L R
Sampling rate                  : 48.0 KHz
Stream size                    : 72.0 MiB (11%)

Subtitle                       : Yes ( English)


Screens:
 
http://www.shotpix.com/images/23460735789299420786.png 
http://www.shotpix.com/images/43369230448672056775.png 
http://www.shotpix.com/images/92721678394507516206.png 
http://www.shotpix.com/images/14067278708014282762.png 
http://www.shotpix.com/images/09971948395010275927.png 
http://www.shotpix.com/images/30814451969545233144.png


Thumbs:
 
http://www.shotpix.com/images/89759348371932241467.jpg

----------------------------------------------------------------------------------------------------


Recommend to you to use latest version of VLC player. Install K-Lite Codec Pack or shark007 codecs
in case of any kind of problem in playback (For non-VLC Media Player users). Alternatively, install
Core AVC codecs, the fastest decoder that there is coupled with Community Center Codec Pack and play
on Windows Media Player Classic. Check sample to be sure.
Enjoy!

Greets to: VYTO, a2zRG, MusiK_KinG, Neon, Kuroyukihime, TorDigger, Ash968, StyLishSaLH and staff members at
ExtraTorrent, TPB, H33T, KAT, 1337x, PublicHD, Ahashare, BTScene, SilverTorrent, LimeTorrents, TorrentMafia,
P2PDL, and all others.

Encoder Notes: Looking For Early Access To Anything You Can Provide DVDScr, R5, DVDR, BluRay, Direct
Audio, Early Music Releases, Seedboxes, Dedicated Servers anything u can provide, Advance / Promo CDs/
DVDs. If You Got anything to offer contact me at "prg@hush.com".
Fan Page: www .. com / p2pdl